# xmcd
#
# Track frame offsets: 
#        182
#        16105
#        32257
#        43370
#        58075
#        75730
#        91390
#        110812
#        123055
#        139320
#        162140
#        170957
#        190745
#        207042
#        221752
#        245400
#        257360
#        270282
#
# Disc length: 3789 seconds
#
# Revision: 4
# Processed by: cddbd v1.5.2PL0 Copyright (c) Steve Scherf et al.
# Submitted via: ExactAudioCopyFreeDBPlugin 1.0
#
DISCID=f50ecb12
DTITLE=B.B. King - Audio Archive - B.B. King
DYEAR=1900
DGENRE=Blues
TTITLE0=The Letter
TTITLE1=Long Nights
TTITLE2=Catfish Blues
TTITLE3=B.B. Boogie
TTITLE4=Evil Child
TTITLE5=Walkin' and Cryin'
TTITLE6=Sweet 16
TTITLE7=Please Love Me
TTITLE8=The Other Night Blues
TTITLE9=Everyday I Have The Blues
TTITLE10=A New Way Of Driving
TTITLE11=How Blue Can You Get
TTITLE12=It's My Own Fault Baby
TTITLE13=Mr. Pawnbroker
TTITLE14=You've Done Gone Lost Your Good Thing Now
TTITLE15=Paying The Cost To The Boss
TTITLE16=I'm Working On The Building
TTITLE17=Save A Seat For Me
EXTD=
EXTT0=
EXTT1=
EXTT2=
EXTT3=
EXTT4=
EXTT5=
EXTT6=
EXTT7=
EXTT8=
EXTT9=
EXTT10=
EXTT11=
EXTT12=
EXTT13=
EXTT14=
EXTT15=
EXTT16=
EXTT17=
PLAYORDER=
